<svg xmlns="http://www.w3.org/2000/svg" viewBox="0 0 476.15 504"><defs><style>.cls-1{fill:#7d3daf;}</style></defs><title>viber</title><g id="Слой_2" data-name="Слой 2"><g id="Layer_1" data-name="Layer 1"><path class="cls-1" d="M127.77,504a20.43,20.43,0,0,1-20.42-20.43c0-9.09-.85-26.32-1.61-41.52-.44-8.9-.84-17-1.08-23.37C73.54,407.55,49.12,388.79,32,362.85,16.86,339.85,7.65,313.09,3.87,281-3,222.53-.71,170.92,11,123.25,23.54,71.92,54.94,36.83,104.3,19,140.56,5.85,179.54,0,230.69,0c11.6,0,24.3.29,40,.91,31.44,1.24,57.35,5,81.55,11.88,29,8.23,59.26,18.47,81.82,44.87,14.2,16.62,24.36,37,31.05,62.36,11,41.55,13.71,87.35,8.62,144.15-2.05,22.88-4.81,47.2-13.85,70.9-17.16,45-50.93,74.21-100.36,86.72a525.6,525.6,0,0,1-128.82,15.8c-6.39,0-12.9-.11-19.38-.33-.24.25-.53.56-.88.94s-.64.68-1,1c-20.76,19.93-51.79,46-63.47,55.75-2.28,1.92-3.85,3.22-4.46,3.76A20.43,20.43,0,0,1,127.77,504ZM230.68,40.85c-46.2,0-80.89,5.1-112.49,16.53C82,70.49,59.89,95.22,50.64,133c-10.5,42.84-12.52,89.7-6.21,143.26,3,25.59,10.11,46.57,21.69,64.12,13,19.76,31.53,33.27,56.56,41.3,18.67,6,22.61,18.62,22.62,28.17,0,5.35.61,17.42,1.24,30.2,0,.26,0,.53,0,.79,11.45-9.9,24-21,34-30.61,4.29-4.7,13.76-14.45,30.26-13.85,6.6.25,13.25.37,19.77.37a484.6,484.6,0,0,0,118.8-14.56c36.77-9.3,59.72-28.9,72.2-61.66,7.18-18.85,9.46-39.14,11.33-60,4.72-52.63,2.43-92.75-7.43-130.06-5.09-19.28-12.49-34.41-22.62-46.26C387.78,66.45,365,58.88,341,52.09c-21-6-43.9-9.25-72-10.36C253.92,41.13,241.73,40.85,230.68,40.85Z"/><path class="cls-1" d="M344.41,305.27c-1.77,15.84-10.47,24.69-19.15,33.14-9.8,9.54-21.47,15.21-35.42,9.63-10.72-4.29-21.22-9.18-31.54-14.37A297.06,297.06,0,0,1,173,269c-29-31.49-51.75-67-65.11-108-3.49-10.73-1.66-20.3,6.79-27.66a198.24,198.24,0,0,1,24.75-18.6,16,16,0,0,1,19.66,1.56c16,14.23,29,30.87,37.49,50.63,2.87,6.7,2.24,13.76-4.32,18.94-3.21,2.54-6.23,5.31-9.39,7.92-8.68,7.18-10,12.18-6.55,22.81,7.89,24.16,24.86,40.89,45.34,54.37,6.91,4.55,15,7.5,22.8,10.46,6.66,2.52,12.21-.25,16.49-5.69,2.23-2.84,4.4-5.72,6.69-8.51,6.53-7.94,18-10.56,26.53-4.86,15,10,29.72,20.48,43.94,31.54C341.68,296.69,342.93,302.47,344.41,305.27Z"/><path class="cls-1" d="M365.89,237.13a10.21,10.21,0,0,1-10.21-10.21A128.47,128.47,0,0,0,227.35,98.59a10.21,10.21,0,1,1,0-20.43c82,0,148.75,66.73,148.75,148.75A10.21,10.21,0,0,1,365.89,237.13Z"/><path class="cls-1" d="M328.1,237.13a10.21,10.21,0,0,1-10.21-10.21,90.64,90.64,0,0,0-90.54-90.54,10.21,10.21,0,0,1,0-20.43,111.09,111.09,0,0,1,111,111A10.21,10.21,0,0,1,328.1,237.13Z"/><path class="cls-1" d="M290.32,237.13a10.21,10.21,0,0,1-10.21-10.21,52.82,52.82,0,0,0-52.76-52.76,10.21,10.21,0,0,1,0-20.43,73.27,73.27,0,0,1,73.19,73.19A10.21,10.21,0,0,1,290.32,237.13Z"/></g></g></svg>