<?xml version="1.0" encoding="iso-8859-1"?>
<!-- Generator: Adobe Illustrator 16.0.0, SVG Export Plug-In . SVG Version: 6.00 Build 0)  -->
<!DOCTYPE svg PUBLIC "-//W3C//DTD SVG 1.1//EN" "http://www.w3.org/Graphics/SVG/1.1/DTD/svg11.dtd">
<svg version="1.1" id="Capa_1" xmlns="http://www.w3.org/2000/svg" xmlns:xlink="http://www.w3.org/1999/xlink" x="0px" y="0px" fill="#ffffff"
	 width="512px" height="512px" viewBox="0 0 512 512" style="enable-background:new 0 0 512 512;" xml:space="preserve">
<g>
	<path d="M448,32H64L0,480h512L448,32z M366.062,156.406C356.875,232.063,311.969,288,256,288s-100.875-55.938-110.063-131.594
		C135.438,151.188,128,140.563,128,128c0-17.688,14.313-32,32-32s32,14.313,32,32c0,10.938-5.844,20.125-14.25,25.906
		C185.5,211.375,218.188,256,256,256c37.844,0,70.5-44.625,78.25-102.094C325.844,148.125,320,138.938,320,128
		c0-17.688,14.312-32,32-32s32,14.313,32,32C384,140.563,376.594,151.188,366.062,156.406z"/>
</g>
</svg>
