<?xml version="1.0" encoding="utf-8"?>
<svg version="1.1" id="Layer_1" xmlns="http://www.w3.org/2000/svg" xmlns:xlink="http://www.w3.org/1999/xlink" x="0px" y="0px"
	 viewBox="0 0 69 70.8" style="enable-background:new 0 0 69 70.8;" xml:space="preserve">
<style type="text/css">
	.st0{fill:#239fff;}
</style>
<path class="st0" d="M33.5,28.3c-1.9,0-3.5-1.6-3.5-3.5V11.9c0-1.9,1.6-3.5,3.5-3.5c1.9,0,3.5,1.6,3.5,3.5v12.8
	C37,26.7,35.5,28.3,33.5,28.3"/>
<path class="st0" d="M25.4,34.2c-0.6,1.8-2.6,2.8-4.4,2.2l-12.2-4c-1.8-0.6-2.8-2.6-2.2-4.4c0.6-1.8,2.6-2.8,4.4-2.2l12.2,4
	C24.9,30.4,26,32.4,25.4,34.2"/>
<path class="st0" d="M41.7,34.2c0.6,1.8,2.6,2.8,4.4,2.2l12.2-4c1.8-0.6,2.8-2.6,2.2-4.4c-0.6-1.8-2.6-2.8-4.4-2.2l-12.2,4
	C42.1,30.4,41.1,32.4,41.7,34.2"/>
<path class="st0" d="M16.8,59.9c-1.6-1.1-1.9-3.3-0.8-4.9l7.5-10.4c1.1-1.6,3.3-1.9,4.9-0.8c1.6,1.1,1.9,3.3,0.8,4.9l-7.5,10.4
	C20.6,60.7,18.4,61,16.8,59.9"/>
<path class="st0" d="M50.2,59.9c1.6-1.1,1.9-3.3,0.8-4.9l-7.5-10.4c-1.1-1.6-3.3-1.9-4.9-0.8c-1.6,1.1-1.9,3.3-0.8,4.9l7.5,10.4
	C46.5,60.7,48.7,61,50.2,59.9"/>
</svg>
