<svg xmlns="http://www.w3.org/2000/svg" viewBox="0 0 355.11 355.11"><defs><style>.cls-1{fill:#df0613;}</style></defs><title>mts_1</title><g id="Слой_2" data-name="Слой 2"><g id="Слой_1-2" data-name="Слой 1"><g id="Слой_2_копия_" data-name="Слой 2 (копия)"><path class="cls-1" d="M305.11,0H50A50,50,0,0,0,0,50V305.11a50,50,0,0,0,50,50H305.11a50,50,0,0,0,50-50V50A50,50,0,0,0,305.11,0ZM272.25,210.22a94,94,0,0,1-94,94h0c-8.77.11-40.75-.57-65.51-24.22-24.2-23.12-27.1-54.42-28.52-69.81A139.74,139.74,0,0,1,85,179.36a189.7,189.7,0,0,1,34.5-88.25c20.16-27.86,37.17-35.07,43-37.25a73.53,73.53,0,0,1,10.25-3l8.5-.75a75.29,75.29,0,0,1,13.5,4.25c7.79,3.29,23,11,41.25,38.25a214.33,214.33,0,0,1,16,28,198.85,198.85,0,0,1,15.27,41.73A188,188,0,0,1,272.25,210.22Z"/></g></g></g></svg>